HIERARCHY
ROOT joint_0
{
	OFFSET 0.000000 0.000000 0.000000
	CHANNELS 6 Xposition Yposition Zposition Zrotation Yrotation Xrotation 
	JOINT joint_1
	{
		OFFSET -0.613770 -1.125488 108.300049
		CHANNELS 3 Zrotation Yrotation Xrotation
		JOINT joint_2
		{
			OFFSET -10.925537 -0.900513 98.259033
			CHANNELS 3 Zrotation Yrotation Xrotation
			JOINT joint_3
			{
				OFFSET -11.287842 0.313599 98.110962
				CHANNELS 3 Zrotation Yrotation Xrotation
				JOINT joint_4
				{
					OFFSET -2.124268 2.484680 136.491943
					CHANNELS 3 Zrotation Yrotation Xrotation
					JOINT joint_5
					{
						OFFSET 16.640869 1.801270 81.862061
						CHANNELS 3 Zrotation Yrotation Xrotation
						End Site
						{
							OFFSET 0.000000 0.000000 0.000000
						}
					}
				}
				JOINT joint_6
				{
					OFFSET 0.447998 -28.248108 77.258057
					CHANNELS 3 Zrotation Yrotation Xrotation
					JOINT joint_7
					{
						OFFSET 7.918701 -130.256348 -24.086060
						CHANNELS 3 Zrotation Yrotation Xrotation
						JOINT joint_8
						{
							OFFSET 62.431885 -29.384277 -258.572021
							CHANNELS 3 Zrotation Yrotation Xrotation
							JOINT joint_9
							{
								OFFSET 53.743164 -21.907532 -238.024963
								CHANNELS 3 Zrotation Yrotation Xrotation
								End Site
								{
									OFFSET 0.000000 0.000000 0.000000
								}
							}
						}
					}
				}
				JOINT joint_10
				{
					OFFSET -2.846924 31.052063 76.130981
					CHANNELS 3 Zrotation Yrotation Xrotation
					JOINT joint_11
					{
						OFFSET 9.073730 131.055603 -18.752930
						CHANNELS 3 Zrotation Yrotation Xrotation
						JOINT joint_12
						{
							OFFSET 52.981201 29.883301 -260.613037
							CHANNELS 3 Zrotation Yrotation Xrotation
							JOINT joint_13
							{
								OFFSET 62.237793 15.935547 -236.423035
								CHANNELS 3 Zrotation Yrotation Xrotation
								End Site
								{
									OFFSET 0.000000 0.000000 0.000000
								}
							}
						}
					}
				}
			}
		}
	}
	JOINT joint_14
	{
		OFFSET 22.046143 -72.816772 -98.122925
		CHANNELS 3 Zrotation Yrotation Xrotation
		JOINT joint_15
		{
			OFFSET -23.673828 -54.692932 -469.927032
			CHANNELS 3 Zrotation Yrotation Xrotation
			JOINT joint_16
			{
				OFFSET -34.875244 -46.505249 -395.890999
				CHANNELS 3 Zrotation Yrotation Xrotation
				JOINT joint_17
				{
					OFFSET 168.486328 14.224182 -74.182999
					CHANNELS 3 Zrotation Yrotation Xrotation
					End Site
					{
						OFFSET 0.000000 0.000000 0.000000
					}
				}
			}
		}
	}
	JOINT joint_18
	{
		OFFSET -1.731934 82.408569 -92.846924
		CHANNELS 3 Zrotation Yrotation Xrotation
		JOINT joint_19
		{
			OFFSET -6.908936 32.203369 -472.535034
			CHANNELS 3 Zrotation Yrotation Xrotation
			JOINT joint_20
			{
				OFFSET -13.963135 23.196533 -399.207993
				CHANNELS 3 Zrotation Yrotation Xrotation
				JOINT joint_21
				{
					OFFSET 168.417725 19.834229 -73.041004
					CHANNELS 3 Zrotation Yrotation Xrotation
					End Site
					{
						OFFSET 0.000000 0.000000 0.000000
					}
				}
			}
		}
	}
}
MOTION
Frames: 15
Frame Time: 0.016667
-2592.691895 962.284973 1058.394043 -4.472397 5.083941 -2.370885 1.089272 -2.333102 2.624691 0.784979 0.252977 -0.529586 0.887741 -0.505686 0.308693 0.100378 1.447584 -0.629865 0.000000 0.000000 0.000000 1.278566 1.764855 -0.875480 0.131737 2.144006 1.843413 0.788067 -2.054818 2.654103 0.000000 0.000000 0.000000 3.031208 0.686613 -1.501802 -0.038978 0.134005 0.135407 -0.265848 0.332873 -1.092203 0.000000 0.000000 0.000000 1.551302 -5.416731 5.754968 1.081464 1.041226 0.211929 1.191362 -0.107776 0.529979 0.000000 0.000000 0.000000 0.593923 -3.131238 1.451090 0.964116 1.679728 -1.122842 0.602293 -3.407136 0.660183 0.000000 0.000000 0.000000 
-2592.666260 962.339233 1058.386963 -4.474911 5.080042 -2.362703 1.088667 -2.328289 2.618926 0.784786 0.250871 -0.530227 0.887593 -0.502614 0.308695 0.100791 1.453735 -0.632301 0.000000 0.000000 0.000000 1.273008 1.784133 -0.866879 0.127928 2.162003 1.835763 0.791645 -2.070964 2.663172 0.000000 0.000000 0.000000 3.024718 0.688127 -1.509787 -0.040438 0.136178 0.128626 -0.266400 0.335938 -1.095080 0.000000 0.000000 0.000000 1.552906 -5.411030 5.744603 1.083480 1.040184 0.208110 1.192374 -0.103223 0.530043 0.000000 0.000000 0.000000 0.594631 -3.135785 1.441748 0.966409 1.699756 -1.129336 0.603038 -3.408221 0.660634 0.000000 0.000000 0.000000 
-2592.643066 962.387268 1058.380005 -4.481014 5.076892 -2.357371 1.090049 -2.323085 2.614841 0.786596 0.250587 -0.529308 0.889218 -0.500196 0.308117 0.101453 1.459256 -0.635897 0.000000 0.000000 0.000000 1.264908 1.802923 -0.859732 0.125156 2.179156 1.831530 0.794205 -2.084753 2.668671 0.000000 0.000000 0.000000 3.014985 0.688985 -1.516774 -0.042225 0.138289 0.120306 -0.266438 0.341003 -1.096525 0.000000 0.000000 0.000000 1.555692 -5.408734 5.736626 1.085859 1.042804 0.206128 1.194277 -0.098356 0.530468 0.000000 0.000000 0.000000 0.596285 -3.140955 1.436315 0.969783 1.720002 -1.137371 0.604684 -3.410763 0.661644 0.000000 0.000000 0.000000 
-2592.629395 962.427551 1058.375000 -4.493634 5.075104 -2.358087 1.094306 -2.314971 2.617208 0.790484 0.249370 -0.528885 0.892944 -0.498791 0.307231 0.102797 1.464176 -0.642743 0.000000 0.000000 0.000000 1.257041 1.821198 -0.854134 0.124073 2.195983 1.833151 0.794258 -2.094476 2.664705 0.000000 0.000000 0.000000 3.003519 0.689562 -1.522987 -0.044327 0.140517 0.109868 -0.265417 0.348303 -1.094528 0.000000 0.000000 0.000000 1.560950 -5.412943 5.733251 1.089160 1.052134 0.208328 1.198017 -0.091809 0.531550 0.000000 0.000000 0.000000 0.599676 -3.147724 1.439098 0.975196 1.740758 -1.148517 0.608036 -3.415755 0.663677 0.000000 0.000000 0.000000 
-2592.618164 962.461548 1058.369019 -4.509928 5.073548 -2.361700 1.100094 -2.304302 2.622381 0.795536 0.247136 -0.528728 0.897885 -0.496512 0.306571 0.104657 1.467331 -0.651932 0.000000 0.000000 0.000000 1.249445 1.838687 -0.850521 0.124139 2.212237 1.838804 0.793176 -2.102385 2.656446 0.000000 0.000000 0.000000 2.991525 0.689544 -1.528271 -0.046793 0.142351 0.097779 -0.263910 0.357104 -1.091077 0.000000 0.000000 0.000000 1.567496 -5.419833 5.732427 1.093072 1.064858 0.212152 1.202845 -0.085010 0.533085 0.000000 0.000000 0.000000 0.603950 -3.154684 1.446159 0.981634 1.762153 -1.161591 0.612160 -3.422748 0.666277 0.000000 0.000000 0.000000 
-2592.599854 962.494202 1058.363037 -4.524597 5.071646 -2.363805 1.104886 -2.294412 2.626126 0.799828 0.245672 -0.527967 0.902007 -0.493114 0.305993 0.106213 1.468502 -0.659447 0.000000 0.000000 0.000000 1.241126 1.855867 -0.845192 0.123528 2.227891 1.841561 0.792785 -2.111890 2.650570 0.000000 0.000000 0.000000 2.977963 0.689969 -1.533887 -0.049071 0.144789 0.086720 -0.262800 0.365883 -1.089125 0.000000 0.000000 0.000000 1.573337 -5.425529 5.731169 1.096493 1.077625 0.214030 1.207211 -0.079836 0.534556 0.000000 0.000000 0.000000 0.607943 -3.160834 1.450562 0.987664 1.783402 -1.172687 0.615876 -3.431209 0.668874 0.000000 0.000000 0.000000 
-2592.572510 962.529541 1058.355957 -4.535929 5.068292 -2.361969 1.106914 -2.283318 2.628281 0.801280 0.244469 -0.529158 0.903610 -0.490841 0.306184 0.107436 1.470769 -0.665422 0.000000 0.000000 0.000000 1.236213 1.873388 -0.837959 0.121716 2.244370 1.840287 0.793776 -2.126302 2.648792 0.000000 0.000000 0.000000 2.966894 0.692407 -1.538850 -0.051207 0.148917 0.076225 -0.262504 0.374323 -1.090167 0.000000 0.000000 0.000000 1.578249 -5.428220 5.727861 1.099489 1.090201 0.211540 1.211086 -0.077640 0.536066 0.000000 0.000000 0.000000 0.611513 -3.164460 1.448344 0.992877 1.803497 -1.179832 0.618944 -3.440686 0.671311 0.000000 0.000000 0.000000 
-2592.539307 962.563354 1058.348022 -4.545273 5.064232 -2.358409 1.107882 -2.271481 2.629073 0.801763 0.242972 -0.530718 0.904393 -0.487528 0.307356 0.108586 1.471540 -0.670893 0.000000 0.000000 0.000000 1.231431 1.890640 -0.829651 0.119325 2.260505 1.836673 0.795334 -2.142781 2.648665 0.000000 0.000000 0.000000 2.954308 0.695385 -1.544213 -0.053178 0.153741 0.066637 -0.262688 0.382584 -1.092984 0.000000 0.000000 0.000000 1.582445 -5.429486 5.723784 1.101925 1.103328 0.207379 1.214595 -0.077850 0.537620 0.000000 0.000000 0.000000 0.614526 -3.166908 1.443404 0.997385 1.823511 -1.185190 0.621275 -3.452032 0.673650 0.000000 0.000000 0.000000 
-2592.496826 962.595947 1058.336060 -4.555153 5.060268 -2.355684 1.108487 -2.259865 2.631017 0.801834 0.240400 -0.531490 0.904543 -0.484618 0.307491 0.109516 1.473966 -0.675430 0.000000 0.000000 0.000000 1.226571 1.908459 -0.821145 0.116701 2.277176 1.832310 0.797188 -2.159535 2.649694 0.000000 0.000000 0.000000 2.943195 0.699140 -1.550629 -0.054876 0.159010 0.058326 -0.262805 0.391722 -1.095770 0.000000 0.000000 0.000000 1.586867 -5.429385 5.719732 1.104902 1.114489 0.204776 1.218635 -0.078993 0.539484 0.000000 0.000000 0.000000 0.617614 -3.169154 1.440614 1.002086 1.844536 -1.193217 0.623470 -3.466036 0.676241 0.000000 0.000000 0.000000 
-2592.442871 962.623474 1058.322021 -4.566255 5.057464 -2.355556 1.108982 -2.251640 2.636165 0.801388 0.238314 -0.533216 0.904434 -0.481268 0.308836 0.110637 1.477871 -0.681031 0.000000 0.000000 0.000000 1.219666 1.926310 -0.813061 0.113914 2.293501 1.827005 0.799315 -2.175345 2.652277 0.000000 0.000000 0.000000 2.934552 0.703421 -1.560788 -0.056051 0.164083 0.052714 -0.262692 0.401788 -1.097924 0.000000 0.000000 0.000000 1.591288 -5.428257 5.717151 1.108331 1.122040 0.205289 1.222938 -0.079873 0.541439 0.000000 0.000000 0.000000 0.620750 -3.171489 1.443475 1.006980 1.865338 -1.206832 0.625494 -3.482644 0.679064 0.000000 0.000000 0.000000 
-2592.378662 962.649780 1058.302979 -4.577131 5.055082 -2.355928 1.109394 -2.245011 2.641804 0.800894 0.235969 -0.534336 0.904220 -0.477583 0.310356 0.111755 1.483243 -0.686745 0.000000 0.000000 0.000000 1.210886 1.944789 -0.806238 0.111109 2.310198 1.821817 0.801804 -2.192111 2.656017 0.000000 0.000000 0.000000 2.924565 0.708050 -1.572526 -0.056956 0.169534 0.048509 -0.262529 0.413024 -1.100191 0.000000 0.000000 0.000000 1.595862 -5.426016 5.714205 1.112164 1.127857 0.207283 1.227701 -0.082085 0.543708 0.000000 0.000000 0.000000 0.623869 -3.173832 1.448245 1.011970 1.886831 -1.223449 0.627296 -3.501848 0.682095 0.000000 0.000000 0.000000 
-2592.312012 962.681335 1058.277954 -4.587218 5.053842 -2.355433 1.109937 -2.239941 2.647974 0.800338 0.234631 -0.536830 0.904085 -0.474241 0.311596 0.112920 1.488228 -0.692653 0.000000 0.000000 0.000000 1.203288 1.963488 -0.797167 0.107602 2.327146 1.813747 0.804080 -2.208193 2.659134 0.000000 0.000000 0.000000 2.912469 0.712040 -1.584902 -0.057743 0.174591 0.044745 -0.262224 0.423615 -1.101759 0.000000 0.000000 0.000000 1.600349 -5.426071 5.709123 1.115069 1.136990 0.210738 1.232516 -0.088493 0.546355 0.000000 0.000000 0.000000 0.626065 -3.179951 1.451270 1.016616 1.913923 -1.238741 0.628350 -3.523003 0.685033 0.000000 0.000000 0.000000 
-2592.248047 962.719727 1058.241943 -4.592465 5.054060 -2.351582 1.108584 -2.237485 2.650938 0.798445 0.234851 -0.537781 0.902333 -0.472961 0.311848 0.114141 1.493565 -0.698867 0.000000 0.000000 0.000000 1.202409 1.983220 -0.787121 0.103124 2.346294 1.802635 0.806332 -2.222699 2.662865 0.000000 0.000000 0.000000 2.897419 0.716298 -1.597434 -0.058359 0.180370 0.040695 -0.261416 0.433747 -1.101311 0.000000 0.000000 0.000000 1.603899 -5.429901 5.698921 1.115543 1.152652 0.215445 1.236843 -0.104443 0.549597 0.000000 0.000000 0.000000 0.625885 -3.192850 1.449108 1.019854 1.950572 -1.250590 0.627414 -3.546685 0.687409 0.000000 0.000000 0.000000 
-2592.181396 962.763367 1058.197998 -4.596223 5.055160 -2.346701 1.107368 -2.236512 2.653546 0.796676 0.237367 -0.539533 0.900963 -0.474018 0.313287 0.115840 1.500323 -0.707555 0.000000 0.000000 0.000000 1.200725 2.003646 -0.777137 0.098249 2.365973 1.790043 0.808409 -2.236581 2.666111 0.000000 0.000000 0.000000 2.879163 0.720240 -1.611304 -0.058894 0.186202 0.036842 -0.260535 0.443614 -1.100518 0.000000 0.000000 0.000000 1.607362 -5.435685 5.686416 1.115147 1.171541 0.221553 1.241256 -0.124538 0.553228 0.000000 0.000000 0.000000 0.624844 -3.209179 1.445311 1.022774 1.992476 -1.261746 0.625761 -3.572169 0.689687 0.000000 0.000000 0.000000 
-2592.097168 962.813416 1058.150024 -4.604875 5.055793 -2.343659 1.108452 -2.231946 2.656813 0.797094 0.237580 -0.540986 0.901611 -0.470956 0.313791 0.117383 1.509751 -0.715697 0.000000 0.000000 0.000000 1.193732 2.022592 -0.764719 0.093314 2.382952 1.775751 0.810162 -2.250180 2.667987 0.000000 0.000000 0.000000 2.861135 0.721308 -1.625631 -0.059861 0.189007 0.033339 -0.260508 0.452831 -1.102793 0.000000 0.000000 0.000000 1.612156 -5.438610 5.676395 1.117113 1.185950 0.225802 1.246702 -0.139181 0.556849 0.000000 0.000000 0.000000 0.626129 -3.222165 1.443501 1.027656 2.031608 -1.274619 0.626127 -3.597815 0.692856 0.000000 0.000000 0.000000 
